<svg width="34" height="34" viewBox="0 0 34 34" fill="none" xmlns="http://www.w3.org/2000/svg">
<g clip-path="url(#clip0_601_1003)">
<path d="M31.875 25.5C31.875 26.0636 31.6511 26.6041 31.2526 27.0026C30.8541 27.4011 30.3136 27.625 29.75 27.625H4.25C3.68641 27.625 3.14591 27.4011 2.7474 27.0026C2.34888 26.6041 2.125 26.0636 2.125 25.5V12.75C2.125 12.1864 2.34888 11.6459 2.7474 11.2474C3.14591 10.8489 3.68641 10.625 4.25 10.625H6.7405C8.43038 10.6241 10.0508 9.95223 11.2455 8.75712L13.0093 6.99762C13.4066 6.60012 13.9453 6.37625 14.5074 6.375H19.4884C20.0519 6.37512 20.5923 6.59908 20.9908 6.99762L22.7502 8.75712C23.3423 9.34939 24.0453 9.8192 24.819 10.1397C25.5928 10.4602 26.422 10.6251 27.2595 10.625H29.75C30.3136 10.625 30.8541 10.8489 31.2526 11.2474C31.6511 11.6459 31.875 12.1864 31.875 12.75V25.5ZM4.25 8.5C3.12283 8.5 2.04183 8.94777 1.2448 9.7448C0.447767 10.5418 0 11.6228 0 12.75L0 25.5C0 26.6272 0.447767 27.7082 1.2448 28.5052C2.04183 29.3022 3.12283 29.75 4.25 29.75H29.75C30.8772 29.75 31.9582 29.3022 32.7552 28.5052C33.5522 27.7082 34 26.6272 34 25.5V12.75C34 11.6228 33.5522 10.5418 32.7552 9.7448C31.9582 8.94777 30.8772 8.5 29.75 8.5H27.2595C26.1324 8.49976 25.0516 8.05183 24.2547 7.25475L22.4953 5.49525C21.6984 4.69817 20.6176 4.25024 19.4905 4.25H14.5095C13.3824 4.25024 12.3016 4.69817 11.5048 5.49525L9.74525 7.25475C8.94841 8.05183 7.86758 8.49976 6.7405 8.5H4.25Z" fill="white"/>
<path d="M17 23.375C15.591 23.375 14.2398 22.8153 13.2435 21.819C12.2472 20.8227 11.6875 19.4715 11.6875 18.0625C11.6875 16.6535 12.2472 15.3023 13.2435 14.306C14.2398 13.3097 15.591 12.75 17 12.75C18.409 12.75 19.7602 13.3097 20.7565 14.306C21.7528 15.3023 22.3125 16.6535 22.3125 18.0625C22.3125 19.4715 21.7528 20.8227 20.7565 21.819C19.7602 22.8153 18.409 23.375 17 23.375ZM17 25.5C18.9725 25.5 20.8643 24.7164 22.2591 23.3216C23.6539 21.9268 24.4375 20.035 24.4375 18.0625C24.4375 16.09 23.6539 14.1982 22.2591 12.8034C20.8643 11.4086 18.9725 10.625 17 10.625C15.0275 10.625 13.1357 11.4086 11.7409 12.8034C10.3461 14.1982 9.5625 16.09 9.5625 18.0625C9.5625 20.035 10.3461 21.9268 11.7409 23.3216C13.1357 24.7164 15.0275 25.5 17 25.5ZM6.375 13.8125C6.375 14.0943 6.26306 14.3645 6.0638 14.5638C5.86454 14.7631 5.59429 14.875 5.3125 14.875C5.03071 14.875 4.76046 14.7631 4.5612 14.5638C4.36194 14.3645 4.25 14.0943 4.25 13.8125C4.25 13.5307 4.36194 13.2605 4.5612 13.0612C4.76046 12.8619 5.03071 12.75 5.3125 12.75C5.59429 12.75 5.86454 12.8619 6.0638 13.0612C6.26306 13.2605 6.375 13.5307 6.375 13.8125Z" fill="white"/>
</g>
<defs>
<clipPath id="clip0_601_1003">
<rect width="34" height="34" fill="white"/>
</clipPath>
</defs>
</svg>
