<svg width="64" height="63" viewBox="0 0 64 63" fill="none" xmlns="http://www.w3.org/2000/svg">
<path d="M13.625 0.375C10.144 0.375 6.80564 1.74135 4.34422 4.17346C1.88281 6.60557 0.5 9.90422 0.5 13.3438V18.5312C0.5 19.2192 0.776562 19.8789 1.26885 20.3653C1.76113 20.8517 2.42881 21.125 3.125 21.125C3.82119 21.125 4.48887 20.8517 4.98115 20.3653C5.47344 19.8789 5.75 19.2192 5.75 18.5312V13.3438C5.75 11.28 6.57969 9.30084 8.05653 7.84158C9.53338 6.38231 11.5364 5.5625 13.625 5.5625H18.875C19.5712 5.5625 20.2389 5.28923 20.7312 4.80281C21.2234 4.31639 21.5 3.65666 21.5 2.96875C21.5 2.28084 21.2234 1.62111 20.7312 1.13469C20.2389 0.64827 19.5712 0.375 18.875 0.375H13.625ZM45.125 0.375C44.4288 0.375 43.7611 0.64827 43.2688 1.13469C42.7766 1.62111 42.5 2.28084 42.5 2.96875C42.5 3.65666 42.7766 4.31639 43.2688 4.80281C43.7611 5.28923 44.4288 5.5625 45.125 5.5625H50.375C52.4636 5.5625 54.4666 6.38231 55.9435 7.84158C57.4203 9.30084 58.25 11.28 58.25 13.3438V18.5312C58.25 19.2192 58.5266 19.8789 59.0188 20.3653C59.5111 20.8517 60.1788 21.125 60.875 21.125C61.5712 21.125 62.2389 20.8517 62.7312 20.3653C63.2234 19.8789 63.5 19.2192 63.5 18.5312V13.3438C63.5 9.90422 62.1172 6.60557 59.6558 4.17346C57.1944 1.74135 53.856 0.375 50.375 0.375H45.125ZM5.75 44.4688C5.75 43.7808 5.47344 43.1211 4.98115 42.6347C4.48887 42.1483 3.82119 41.875 3.125 41.875C2.42881 41.875 1.76113 42.1483 1.26885 42.6347C0.776562 43.1211 0.5 43.7808 0.5 44.4688V49.6562C0.5 53.0958 1.88281 56.3944 4.34422 58.8265C6.80564 61.2587 10.144 62.625 13.625 62.625H18.875C19.5712 62.625 20.2389 62.3517 20.7312 61.8653C21.2234 61.3789 21.5 60.7192 21.5 60.0312C21.5 59.3433 21.2234 58.6836 20.7312 58.1972C20.2389 57.7108 19.5712 57.4375 18.875 57.4375H13.625C11.5364 57.4375 9.53338 56.6177 8.05653 55.1584C6.57969 53.6992 5.75 51.72 5.75 49.6562V44.4688ZM63.5 44.4688C63.5 43.7808 63.2234 43.1211 62.7312 42.6347C62.2389 42.1483 61.5712 41.875 60.875 41.875C60.1788 41.875 59.5111 42.1483 59.0188 42.6347C58.5266 43.1211 58.25 43.7808 58.25 44.4688V49.6562C58.25 51.72 57.4203 53.6992 55.9435 55.1584C54.4666 56.6177 52.4636 57.4375 50.375 57.4375H45.125C44.4288 57.4375 43.7611 57.7108 43.2688 58.1972C42.7766 58.6836 42.5 59.3433 42.5 60.0312C42.5 60.7192 42.7766 61.3789 43.2688 61.8653C43.7611 62.3517 44.4288 62.625 45.125 62.625H50.375C53.856 62.625 57.1944 61.2587 59.6558 58.8265C62.1172 56.3944 63.5 53.0958 63.5 49.6562V44.4688ZM13.625 41.875V28.3097C13.625 26.9339 14.1781 25.6144 15.1627 24.6416C16.1473 23.6687 17.4826 23.1222 18.875 23.1222H22.8125L25.8575 18.3497C26.3321 17.6092 26.9888 16.9995 27.7665 16.5777C28.5441 16.1559 29.4172 15.9356 30.3043 15.9375H33.7062C34.592 15.9379 35.4633 16.1598 36.239 16.5825C37.0147 17.0051 37.6695 17.6149 38.1425 18.3549L41.1928 23.1222H45.1303C46.5226 23.1222 47.858 23.6687 48.8426 24.6416C49.8271 25.6144 50.3803 26.9339 50.3803 28.3097V41.875C50.3803 43.2508 49.8271 44.5703 48.8426 45.5431C47.858 46.516 46.5226 47.0625 45.1303 47.0625H18.8802C17.4879 47.0625 16.1525 46.516 15.1679 45.5431C14.1834 44.5703 13.6302 43.2508 13.6302 41.875H13.625ZM32 39.2812C33.3924 39.2812 34.7277 38.7347 35.7123 37.7619C36.6969 36.789 37.25 35.4696 37.25 34.0938C37.25 32.7179 36.6969 31.3985 35.7123 30.4256C34.7277 29.4528 33.3924 28.9062 32 28.9062C30.6076 28.9062 29.2723 29.4528 28.2877 30.4256C27.3031 31.3985 26.75 32.7179 26.75 34.0938C26.75 35.4696 27.3031 36.789 28.2877 37.7619C29.2723 38.7347 30.6076 39.2812 32 39.2812Z" fill="white"/>
</svg>
