<svg width="15" height="15" viewBox="0 0 15 15" fill="none" xmlns="http://www.w3.org/2000/svg">
<path d="M6.50842 8.77502L4.96779 7.2344C4.83793 7.10453 4.67855 7.0396 4.48967 7.0396C4.30078 7.0396 4.1355 7.11044 3.99383 7.2521C3.86397 7.38196 3.79904 7.54724 3.79904 7.74794C3.79904 7.94863 3.86397 8.11391 3.99383 8.24377L6.01258 10.2625C6.14244 10.3924 6.30772 10.4573 6.50842 10.4573C6.70911 10.4573 6.87439 10.3924 7.00425 10.2625L11.024 6.24273C11.1539 6.11287 11.2188 5.95349 11.2188 5.7646C11.2188 5.57572 11.148 5.41044 11.0063 5.26877C10.8765 5.13891 10.7112 5.07398 10.5105 5.07398C10.3098 5.07398 10.1445 5.13891 10.0147 5.26877L6.50842 8.77502ZM7.50008 14.5834C6.52022 14.5834 5.59939 14.3973 4.73758 14.0252C3.87578 13.6535 3.12612 13.149 2.48862 12.5115C1.85112 11.874 1.34655 11.1243 0.974915 10.2625C0.602804 9.40071 0.416748 8.47988 0.416748 7.50002C0.416748 6.52016 0.602804 5.59933 0.974915 4.73752C1.34655 3.87572 1.85112 3.12606 2.48862 2.48856C3.12612 1.85106 3.87578 1.34626 4.73758 0.974145C5.59939 0.602506 6.52022 0.416687 7.50008 0.416687C8.47994 0.416687 9.40078 0.602506 10.2626 0.974145C11.1244 1.34626 11.874 1.85106 12.5115 2.48856C13.149 3.12606 13.6536 3.87572 14.0252 4.73752C14.3974 5.59933 14.5834 6.52016 14.5834 7.50002C14.5834 8.47988 14.3974 9.40071 14.0252 10.2625C13.6536 11.1243 13.149 11.874 12.5115 12.5115C11.874 13.149 11.1244 13.6535 10.2626 14.0252C9.40078 14.3973 8.47994 14.5834 7.50008 14.5834Z" fill="#00FF94"/>
</svg>
