<svg width="79" height="79" viewBox="0 0 79 79" fill="none" xmlns="http://www.w3.org/2000/svg">
<g clip-path="url(#clip0_1792_385)">
<path d="M59.2912 19.7924H30.2642C29.5811 19.7924 29.0272 20.346 29.0272 21.0294C29.0272 21.7126 29.581 22.2664 30.2642 22.2664H34.3049V31.5848C34.3049 32.5528 35.4206 33.1523 36.2279 32.6139L39.5001 30.4325L42.7722 32.6139C43.5805 33.1529 44.6952 32.5518 44.6952 31.5848V22.2664H58.0542V56.7361H20.9459V22.2664H24.9866C25.6697 22.2664 26.2236 21.7127 26.2236 21.0294C26.2236 20.346 25.6699 19.7924 24.9866 19.7924H19.7089C19.0258 19.7924 18.4719 20.346 18.4719 21.0294V57.9729C18.4719 58.6561 19.0257 59.2099 19.7089 59.2099H59.2912C59.9743 59.2099 60.5282 58.6563 60.5282 57.9729V21.0294C60.5282 20.346 59.9745 19.7924 59.2912 19.7924ZM42.2214 29.2734L40.1862 27.9165C39.7752 27.6427 39.2251 27.6425 38.8141 27.9165L36.7789 29.2734V22.2664H42.2214V29.2734Z" fill="#E8E8E8"/>
<path d="M78.7922 38.8151L73.5145 30.8986C73.2122 30.4449 72.6487 30.2426 72.1267 30.4008C71.605 30.5586 71.2482 31.0396 71.2482 31.5846V34.3059H64.5687C63.8856 34.3059 63.3317 34.8595 63.3317 35.5429V43.4594C63.3317 44.1426 63.8854 44.6964 64.5687 44.6964H71.2483V47.4177C71.2483 47.9229 71.5677 48.3893 72.0389 48.5714C72.5736 48.7778 73.1965 48.5806 73.5143 48.1039L78.792 40.1874C79.0693 39.7717 79.0693 39.2306 78.7922 38.8151ZM73.7168 43.3407C73.657 42.7132 73.1286 42.2225 72.4855 42.2225H65.806V36.78H72.4855C73.1286 36.78 73.657 36.2892 73.7168 35.6618L76.2765 39.5014L73.7168 43.3407Z" fill="#E8E8E8"/>
<path d="M14.4312 34.306H7.75171V31.5847C7.75171 31.0395 7.39482 30.5586 6.87314 30.4008C6.35162 30.2429 5.78797 30.4452 5.4854 30.8985L0.207837 38.815C-0.0692792 39.2307 -0.0692792 39.7718 0.207837 40.1872L5.48555 48.1037C5.8034 48.5804 6.4263 48.7778 6.96094 48.5712C7.43231 48.3891 7.75155 47.9227 7.75155 47.4175V44.6962H14.4311C15.1141 44.6962 15.668 44.1426 15.668 43.4592V35.5427C15.6682 34.8596 15.1144 34.306 14.4312 34.306ZM13.1944 42.2225H6.51486C5.87176 42.2225 5.34329 42.7133 5.28358 43.3407L2.7238 39.5012L5.28358 35.6616C5.34329 36.2892 5.87176 36.7798 6.51486 36.7798H13.1944V42.2225Z" fill="#E8E8E8"/>
<path d="M48.6003 72.1279C48.4423 71.6062 47.9615 71.2495 47.4164 71.2495H44.6951V64.57C44.6951 63.8868 44.1413 63.333 43.4581 63.333H35.5416C34.8585 63.333 34.3046 63.8866 34.3046 64.57V71.2495H31.5833C31.0381 71.2495 30.5575 71.6062 30.3995 72.1279C30.2415 72.6497 30.4436 73.2132 30.8973 73.5157L38.8138 78.7934C39.2248 79.0672 39.775 79.0674 40.1859 78.7934L48.1024 73.5157C48.5562 73.2132 48.7583 72.6497 48.6003 72.1279ZM39.5001 76.2774L35.6606 73.7176C36.2881 73.6579 36.7787 73.1295 36.7787 72.4863V65.8068H42.2212V72.4863C42.2212 73.1295 42.7121 73.6579 43.3394 73.7176L39.5001 76.2774Z" fill="#E8E8E8"/>
<path d="M48.1028 5.48662L40.1863 0.209058C39.7706 -0.0680585 39.2295 -0.0680585 38.8141 0.209058L30.8976 5.48677C30.4352 5.79506 30.2334 6.39342 30.4142 6.9188C30.5839 7.41224 31.0619 7.75277 31.5838 7.75277H34.3051V14.4323C34.3051 15.1155 34.8589 15.6693 35.5421 15.6693H43.4586C44.1417 15.6693 44.6956 15.1157 44.6956 14.4323V7.75277H47.4169C47.962 7.75277 48.4428 7.39604 48.6008 6.87436C48.7584 6.35253 48.5562 5.78904 48.1028 5.48662ZM42.2214 6.51578V13.1953H36.7789V6.51578C36.7789 5.87267 36.2881 5.3442 35.6607 5.28449L39.5003 2.72471L43.3398 5.28449C42.7121 5.3442 42.2214 5.87267 42.2214 6.51578Z" fill="#E8E8E8"/>
</g>
<defs>
<clipPath id="clip0_1792_385">
<rect width="79" height="79" fill="white"/>
</clipPath>
</defs>
</svg>
