<svg width="79" height="79" viewBox="0 0 79 79" fill="none" xmlns="http://www.w3.org/2000/svg">
<path d="M32.9167 54.3125L42.7917 57.6042C42.7917 57.6042 67.4792 52.6667 70.7709 52.6667C74.0625 52.6667 74.0625 55.9584 70.7709 59.25C67.4792 62.5417 55.9584 72.4167 46.0834 72.4167C36.2084 72.4167 29.625 67.4792 23.0417 67.4792H6.58337" stroke="#E8E8E8" stroke-width="3" stroke-linecap="round" stroke-linejoin="round"/>
<path d="M6.58337 47.7292C9.87504 44.4375 16.4584 39.5 23.0417 39.5C29.625 39.5 45.2605 46.0834 47.7292 49.375C50.198 52.6667 42.7917 57.6042 42.7917 57.6042M26.3334 29.625V16.4584C26.3334 15.5853 26.6802 14.7481 27.2975 14.1308C27.9148 13.5135 28.752 13.1667 29.625 13.1667H69.125C69.998 13.1667 70.8353 13.5135 71.4526 14.1308C72.0699 14.7481 72.4167 15.5853 72.4167 16.4584V42.7917" stroke="#E8E8E8" stroke-width="3" stroke-linecap="round" stroke-linejoin="round"/>
<path d="M41.1459 13.1667H57.6042V27.9792H41.1459V13.1667Z" stroke="#E8E8E8" stroke-width="3" stroke-linecap="round" stroke-linejoin="round"/>
</svg>
