<svg width="248" height="219" viewBox="0 0 248 219" fill="none" xmlns="http://www.w3.org/2000/svg">
<path d="M247.798 162.281H0V162.405H247.798V162.281Z" fill="#EBEBEB"/>
<path d="M222.969 170.258H215.584V170.382H222.969V170.258Z" fill="#EBEBEB"/>
<path d="M164.151 171.603H159.843V171.727H164.151V171.603Z" fill="#EBEBEB"/>
<path d="M213.491 165.656H196.546V165.78H213.491V165.656Z" fill="#EBEBEB"/>
<path d="M54.332 168.213H32.926V168.337H54.332V168.213Z" fill="#EBEBEB"/>
<path d="M66.4651 168.213H58.7451V168.337H66.4651V168.213Z" fill="#EBEBEB"/>
<path d="M126.255 166.55H79.8301V166.674H126.255V166.55Z" fill="#EBEBEB"/>
<path d="M117.463 140.178H21.7631C21.013 140.177 20.2939 139.879 19.7636 139.349C19.2332 138.818 18.9349 138.099 18.9341 137.349V2.828C18.9351 2.07812 19.2336 1.35927 19.7639 0.829121C20.2942 0.298968 21.0132 0.000793618 21.7631 0H117.463C118.213 0.00105816 118.931 0.299348 119.462 0.829472C119.992 1.3596 120.29 2.07829 120.291 2.828V137.347C120.291 138.097 119.993 138.817 119.463 139.347C118.932 139.878 118.213 140.177 117.463 140.178ZM21.7641 0.124001C21.0486 0.126111 20.3631 0.411253 19.8572 0.917145C19.3513 1.42304 19.0662 2.10857 19.0641 2.824V137.347C19.0662 138.062 19.3513 138.748 19.8572 139.254C20.3631 139.76 21.0486 140.045 21.7641 140.047H117.464C118.18 140.045 118.865 139.76 119.371 139.254C119.877 138.748 120.162 138.062 120.164 137.347V2.828C120.162 2.11256 119.877 1.42703 119.371 0.921143C118.865 0.415251 118.18 0.130113 117.464 0.128002L21.7641 0.124001Z" fill="#EBEBEB"/>
<path d="M224.659 140.178H128.959C128.209 140.177 127.49 139.879 126.96 139.348C126.43 138.818 126.132 138.099 126.131 137.349V2.828C126.132 2.07821 126.43 1.35936 126.96 0.829182C127.49 0.299001 128.209 0.000794128 128.959 0H224.659C225.409 0.000793618 226.128 0.298968 226.658 0.829121C227.189 1.35927 227.487 2.07812 227.488 2.828V137.347C227.488 138.097 227.19 138.817 226.659 139.348C226.129 139.879 225.41 140.177 224.659 140.178ZM128.959 0.124001C128.244 0.126111 127.558 0.411253 127.052 0.917145C126.546 1.42304 126.261 2.10857 126.259 2.824V137.347C126.261 138.062 126.546 138.748 127.052 139.254C127.558 139.76 128.244 140.045 128.959 140.047H224.659C225.375 140.046 226.062 139.762 226.569 139.256C227.076 138.75 227.362 138.063 227.364 137.347V2.828C227.362 2.1117 227.076 1.42542 226.569 0.919384C226.062 0.41335 225.375 0.128793 224.659 0.128002L128.959 0.124001Z" fill="#EBEBEB"/>
<path d="M106.293 162.28H115.522L115.522 98.908H106.293V162.28Z" fill="#E6E6E6"/>
<path d="M109.542 162.28H106.293V150.24H112.948L109.542 162.28Z" fill="#F0F0F0"/>
<path d="M203.887 162.28H213.116V98.908H203.887V162.28Z" fill="#E6E6E6"/>
<path d="M106.293 158.993H206.722V98.908L106.293 98.908L106.293 158.993Z" fill="#F0F0F0"/>
<path d="M203.477 162.28H206.726V150.24H200.067L203.477 162.28Z" fill="#F0F0F0"/>
<path d="M173.612 103.883V153.587H203.383V103.883H173.612Z" fill="#E6E6E6"/>
<path d="M185.553 105.631H191.443C193.936 105.656 196.348 104.75 198.207 103.089H178.79C180.649 104.75 183.061 105.656 185.553 105.631Z" fill="#F0F0F0"/>
<path d="M141.622 103.883V153.587H171.393V103.883H141.622Z" fill="#E6E6E6"/>
<path d="M153.262 105.631H159.152C161.644 105.656 164.056 104.75 165.915 103.089H146.498C148.357 104.75 150.769 105.656 153.262 105.631Z" fill="#F0F0F0"/>
<path d="M109.632 103.883V153.587H139.403V103.883H109.632Z" fill="#E6E6E6"/>
<path d="M121.272 105.631H127.162C129.655 105.656 132.067 104.75 133.926 103.089H114.508C116.367 104.75 118.779 105.656 121.272 105.631Z" fill="#F0F0F0"/>
<path d="M34.6819 162.28H97.6519L97.6519 20.728H34.6819L34.6819 162.28Z" fill="#F0F0F0"/>
<path d="M34.682 162.28H96.323L96.323 20.728H34.682L34.682 162.28Z" fill="#F5F5F5"/>
<path d="M92.5669 159.068L92.5669 23.9401L38.4379 23.9401L38.4379 159.068H92.5669Z" fill="#F0F0F0"/>
<path d="M87.2478 49.0711C87.2478 47.1332 86.8661 45.2142 86.1245 43.4238C85.3829 41.6334 84.2959 40.0066 82.9256 38.6363C81.5553 37.266 79.9285 36.179 78.1381 35.4374C76.3477 34.6958 74.4287 34.3141 72.4908 34.3141H58.5148C54.601 34.3141 50.8475 35.8688 48.08 38.6363C45.3126 41.4038 43.7578 45.1573 43.7578 49.0711H87.2478Z" fill="#FAFAFA"/>
<path d="M87.2478 150.669V118.387H43.7578V150.669H87.2478Z" fill="#F5F5F5"/>
<path d="M87.2479 58.173H68.0649V114.222H87.2479V58.173Z" fill="#F5F5F5"/>
<path d="M62.9408 58.173H43.7578V114.222H62.9408V58.173Z" fill="#F5F5F5"/>
<path d="M50.7149 85.9451H42.8579C42.5349 85.9443 42.2253 85.8156 41.9968 85.5872C41.7684 85.3587 41.6397 85.0491 41.6389 84.7261C41.64 84.4031 41.7687 84.0937 41.9971 83.8653C42.2255 83.6369 42.5349 83.5081 42.8579 83.5071H50.7149C51.0379 83.5081 51.3473 83.6369 51.5757 83.8653C51.8041 84.0937 51.9329 84.4031 51.9339 84.7261C51.9331 85.0491 51.8044 85.3587 51.576 85.5872C51.3476 85.8156 51.038 85.9443 50.7149 85.9451Z" fill="#E0E0E0"/>
<path d="M39.4128 159.068L39.4128 23.9401H38.4388L38.4388 159.068H39.4128Z" fill="#F0F0F0"/>
<path d="M137.482 83.3721L204.261 83.3721V20.7281L137.482 20.7281V83.3721Z" fill="#E6E6E6"/>
<path d="M135.799 83.3721L202.578 83.3721V20.7281L135.799 20.7281V83.3721Z" fill="#F5F5F5"/>
<path d="M131.9 86.998L204.261 86.998V83.372L131.9 83.372V86.998Z" fill="#E6E6E6"/>
<path d="M130.005 86.998L198.639 86.998V83.372L130.005 83.372V86.998Z" fill="#F5F5F5"/>
<path d="M199.556 80.1141V23.9871L138.82 23.9871V80.1141H199.556Z" fill="white"/>
<path d="M170.871 80.1141V23.9871H167.504V80.1141H170.871Z" fill="#F5F5F5"/>
<path d="M140.093 80.1141V23.9871H138.82V80.1141H140.093Z" fill="#E6E6E6"/>
<path d="M172.144 80.1141V23.9871H170.871V80.1141H172.144Z" fill="#E6E6E6"/>
<path d="M146.459 85.033C145.231 72.308 144.376 51.659 145.04 44.753C145.051 44.6343 145.088 44.5195 145.147 44.416C145.207 44.3126 145.287 44.2229 145.384 44.153C145.512 44.0591 145.664 44.0031 145.823 43.9914C145.982 43.9798 146.141 44.013 146.281 44.0872C146.422 44.1614 146.539 44.2737 146.619 44.4112C146.699 44.5487 146.739 44.706 146.734 44.865C146.617 48.287 146.482 56.84 147.211 71.595C147.574 78.94 148.097 83.97 147.738 85.031L146.459 85.033Z" fill="#E6E6E6"/>
<path d="M141.881 55.704C138.381 51.821 131.242 49.06 123.964 49.074C121.107 49.08 132.657 53.591 137.464 58.574C141.305 62.712 144.467 67.4321 146.833 72.559C145.905 64.954 145.378 59.585 141.881 55.704Z" fill="#E6E6E6"/>
<path d="M148.813 56.8859C151.713 52.8419 158.42 49.7319 165.673 49.3799C168.52 49.2419 157.687 54.317 153.644 59.519C150.419 63.8668 147.967 68.7381 146.397 73.919C146.185 66.306 145.909 60.9309 148.813 56.8859Z" fill="#E6E6E6"/>
<path d="M141.725 41.522C138.764 38.234 132.716 35.896 126.553 35.908C124.134 35.908 133.914 39.734 137.981 43.949C141.234 47.4528 143.912 51.4497 145.915 55.791C145.133 49.357 144.684 44.81 141.725 41.522Z" fill="#E6E6E6"/>
<path d="M147.594 46.385C150.053 42.96 155.73 40.3269 161.871 40.0289C164.282 39.9119 155.109 44.209 151.685 48.614C148.953 52.2975 146.877 56.4247 145.548 60.814C145.37 54.362 145.135 49.808 147.594 46.385Z" fill="#E6E6E6"/>
<path d="M146.953 98.908C145.108 98.908 143.332 98.2022 141.99 96.9353C140.648 95.6684 139.842 93.9364 139.736 92.094L139.098 81.031H154.808L154.17 92.094C154.064 93.9364 153.257 95.6684 151.916 96.9353C150.574 98.2022 148.798 98.908 146.953 98.908Z" fill="#E6E6E6"/>
<path d="M155.825 83.546H138.084L137.576 78.946H156.337L155.825 83.546Z" fill="#E6E6E6"/>
<path d="M123.899 184.664C176.969 184.664 219.99 182.151 219.99 179.052C219.99 175.953 176.969 173.44 123.899 173.44C70.8295 173.44 27.8081 175.953 27.8081 179.052C27.8081 182.151 70.8295 184.664 123.899 184.664Z" fill="#F5F5F5"/>
<path d="M125.838 173.689L121.7 174.155L120.174 164.771L124.312 164.305L125.838 173.689Z" fill="#FFC3BD"/>
<path d="M144.364 174.593H140.232L139.203 165.024H143.335L144.364 174.593Z" fill="#FFC3BD"/>
<path d="M139.892 174.112H144.929C145.011 174.112 145.091 174.14 145.155 174.191C145.219 174.243 145.263 174.314 145.281 174.394L146.097 178.067C146.116 178.157 146.115 178.249 146.093 178.338C146.072 178.427 146.03 178.51 145.972 178.581C145.914 178.651 145.84 178.708 145.757 178.746C145.674 178.785 145.584 178.804 145.492 178.802C143.871 178.774 142.692 178.679 140.648 178.679C139.392 178.679 135.604 178.809 133.87 178.809C132.17 178.809 131.909 177.094 132.619 176.939C135.803 176.239 138.202 175.282 139.219 174.366C139.404 174.201 139.644 174.11 139.892 174.112Z" fill="#263238"/>
<path d="M121.632 173.446L126.116 172.938C126.197 172.928 126.28 172.947 126.349 172.991C126.419 173.034 126.471 173.1 126.498 173.178L127.723 176.735C127.754 176.821 127.765 176.913 127.755 177.004C127.745 177.095 127.714 177.182 127.665 177.259C127.616 177.336 127.55 177.401 127.472 177.449C127.394 177.497 127.306 177.526 127.215 177.535C125.595 177.691 123.247 177.861 121.215 178.092C118.838 178.362 118.442 178.998 115.638 178.933C113.938 178.893 113.512 177.168 114.225 177.033C117.473 176.402 118.101 175.911 120.682 173.885C120.952 173.653 121.281 173.501 121.632 173.446Z" fill="#263238"/>
<path d="M125.282 53.177C123.894 54.323 122.528 55.319 121.115 56.339C119.702 57.359 118.259 58.306 116.774 59.225C115.289 60.144 113.765 61.025 112.167 61.825C110.533 62.6714 108.833 63.3811 107.082 63.947C106.619 64.095 106.168 64.217 105.648 64.347C105.14 64.4573 104.626 64.5397 104.108 64.594C103.177 64.694 102.301 64.739 101.428 64.779C99.6881 64.859 97.9811 64.857 96.2761 64.845C92.8661 64.804 89.4851 64.64 86.0891 64.34L86.0381 61.24C89.3731 60.811 92.7231 60.44 96.0381 60.067C97.6951 59.887 99.3481 59.685 100.963 59.474C101.763 59.365 102.563 59.237 103.301 59.1C103.618 59.044 103.932 58.9703 104.241 58.879C104.532 58.779 104.889 58.665 105.219 58.532C106.636 57.9567 108.012 57.2837 109.336 56.518C110.707 55.731 112.079 54.886 113.427 53.988C114.775 53.09 116.117 52.16 117.447 51.211C118.777 50.262 120.106 49.257 121.354 48.311L125.282 53.177Z" fill="#FFC3BD"/>
<path d="M129.321 49.645C128.727 53.551 120.503 59.526 120.503 59.526L114.603 52.203C117.188 49.4447 119.928 46.8368 122.811 44.392C125.466 42.222 129.967 45.395 129.321 49.645Z" fill="#00AFC9"/>
<path d="M87.176 61.5671L84.83 59.8971L84.573 65.1731C84.9276 65.174 85.2771 65.0881 85.5909 64.9229C85.9046 64.7576 86.1732 64.5181 86.373 64.2251L87.176 61.5671Z" fill="#FFC3BD"/>
<path d="M82.711 58.3611L82.231 63.5321L84.575 65.1731L84.832 59.8971L82.711 58.3611Z" fill="#FFC3BD"/>
<path opacity="0.2" d="M120.176 164.774L120.962 169.611L125.101 169.145L124.315 164.308L120.176 164.774Z" fill="black"/>
<path opacity="0.2" d="M143.337 165.025H139.203L139.735 169.957H143.869L143.337 165.025Z" fill="black"/>
<path d="M143.396 44.517C143.704 44.586 143.995 44.7159 144.251 44.899C144.508 45.0821 144.726 45.3147 144.891 45.5832C145.057 45.8516 145.167 46.1505 145.216 46.4621C145.264 46.7738 145.249 47.092 145.173 47.398C144.276 51.1195 143.601 54.8908 143.149 58.692C142.758 61.892 142.524 64.949 142.378 67.72C142.035 74.215 142.178 79.166 141.984 80.844C138.753 80.62 126.577 79.773 119.938 79.309C117.697 61.765 120.323 50.569 121.798 46.02C122.024 45.3112 122.446 44.6811 123.016 44.2031C123.587 43.7251 124.281 43.4188 125.018 43.32C125.864 43.209 126.876 43.102 127.944 43.039C128.318 43.015 128.697 43.002 129.083 42.994C132.217 43.0311 135.347 43.2488 138.456 43.646C139.046 43.716 139.642 43.803 140.222 43.896C141.381 44.09 142.483 44.313 143.396 44.517Z" fill="#01A2AD"/>
<path d="M138.265 33.0331C137.465 36.0071 136.487 41.4911 138.457 43.6511C133.347 47.0881 130.085 51.9271 129.144 50.8761C128.651 50.3261 128.437 43.9611 129.085 42.9971C132.504 42.4291 132.591 39.9281 132.169 37.5441L138.265 33.0331Z" fill="#FFC3BD"/>
<path d="M138.061 42.4181C138.061 42.4181 129.734 46.1031 128.63 54.3431C130.924 51.6871 135.991 48.7971 135.991 48.7971L133.756 48.1551C135.177 47.6157 136.649 47.2197 138.149 46.9731C137.901 45.8351 139.223 43.5651 139.223 43.5651L138.061 42.4181Z" fill="#00AFC9"/>
<path d="M130.548 42.285C130.548 42.285 131.658 46.991 128.631 54.343C128.034 51.777 127.216 49.2675 126.185 46.843L128.224 47.398C128.224 47.398 128.124 46.449 126.473 45.187C127.161 44.1877 128.019 43.3169 129.008 42.614L130.548 42.285Z" fill="#00AFC9"/>
<path opacity="0.2" d="M135.78 34.874L132.172 37.542C132.279 38.0972 132.337 38.6607 132.345 39.226C133.645 39.126 135.505 37.843 135.736 36.508C135.85 35.9705 135.864 35.4169 135.78 34.874Z" fill="black"/>
<path d="M127.684 24.421C125.669 24.508 124.557 27.982 126.602 30.843C128.647 33.704 130.399 24.304 127.684 24.421Z" fill="#263238"/>
<path d="M137.621 27.478C137.86 31.572 138.208 33.955 136.406 36.288C133.696 39.797 128.456 38.539 126.999 34.599C125.688 31.053 125.517 24.954 129.299 22.859C130.131 22.3926 131.068 22.1467 132.022 22.1447C132.976 22.1426 133.914 22.3845 134.748 22.8474C135.582 23.3103 136.284 23.9787 136.787 24.7892C137.289 25.5997 137.577 26.5253 137.621 27.478Z" fill="#FFC3BD"/>
<path d="M138.222 30.6241C137.127 29.9823 136.171 29.1292 135.41 28.1144C134.648 27.0996 134.096 25.9434 133.785 24.7131C132.585 24.9971 126.604 27.7491 124.765 24.7131C122.926 21.6771 125.24 19.8961 128.681 21.7651C127.159 19.0791 128.543 17.765 133.325 17.649C138.107 17.533 137.464 20.3051 137.464 20.3051C137.464 20.3051 141.084 18.7291 142.364 21.5051C143.847 24.6951 141.111 30.1421 138.222 30.6241Z" fill="#263238"/>
<path d="M136.646 19.572C136.69 19.572 138.457 19.997 140.493 17.948C140.128 19.696 136.966 20.86 136.966 20.86L136.646 19.572Z" fill="#263238"/>
<path d="M139.022 25.5611C137.115 24.9021 134.806 27.7271 135.659 31.1381C136.512 34.5491 141.591 26.4491 139.022 25.5611Z" fill="#263238"/>
<path d="M140.101 30.883C139.926 31.8997 139.356 32.8058 138.515 33.403C137.394 34.185 136.384 33.291 136.315 31.997C136.257 30.833 136.769 29.023 138.076 28.756C138.363 28.7024 138.658 28.7213 138.936 28.8111C139.214 28.9008 139.465 29.0585 139.666 29.2698C139.867 29.4812 140.012 29.7394 140.088 30.0212C140.164 30.3029 140.169 30.5992 140.101 30.883Z" fill="#FFC3BD"/>
<path d="M126.152 125.863C127.145 113.777 134.429 80.3201 134.429 80.3201L119.935 79.3091C119.935 79.3091 114.346 112.52 113.918 125.124C113.472 138.229 118.743 167.355 118.743 167.355L125.694 166.564C125.694 166.564 125.155 137.999 126.152 125.863Z" fill="#00AFC9"/>
<path opacity="0.5" d="M126.152 125.863C127.145 113.777 134.429 80.3201 134.429 80.3201L119.935 79.3091C119.935 79.3091 114.346 112.52 113.918 125.124C113.472 138.229 118.743 167.355 118.743 167.355L125.694 166.564C125.694 166.564 125.155 137.999 126.152 125.863Z" fill="white"/>
<path opacity="0.2" d="M128.969 91.65C126.047 95.386 125.995 108.507 127.125 118.201C128.202 111.208 129.899 102.327 131.386 94.924L128.969 91.65Z" fill="black"/>
<path d="M127.756 79.854C127.756 79.854 129.32 115.229 131.065 127.209C132.975 140.328 137.826 169.001 137.826 169.001H145.394C145.394 169.001 144.149 141.995 143.15 129.106C142.013 114.425 141.982 80.846 141.982 80.846L127.756 79.854Z" fill="#00AFC9"/>
<path opacity="0.5" d="M127.756 79.854C127.756 79.854 129.32 115.229 131.065 127.209C132.975 140.328 137.826 169.001 137.826 169.001H145.394C145.394 169.001 144.149 141.995 143.15 129.106C142.013 114.425 141.982 80.846 141.982 80.846L127.756 79.854Z" fill="white"/>
<path d="M136.916 169.162H145.827V166.5L135.866 166.327L136.916 169.162Z" fill="#00AFC9"/>
<path d="M118.44 168.138L126.724 167.199L126.424 164.522L117.147 165.431L118.44 168.138Z" fill="#00AFC9"/>
<path d="M131.593 29.355C131.633 29.686 131.493 29.975 131.273 30.001C131.053 30.027 130.849 29.78 130.81 29.449C130.771 29.118 130.91 28.829 131.13 28.803C131.35 28.777 131.554 29.024 131.593 29.355Z" fill="#263238"/>
<path d="M127.854 29.8041C127.894 30.1351 127.754 30.4241 127.534 30.4501C127.314 30.4761 127.11 30.2291 127.07 29.8981C127.03 29.5671 127.17 29.2781 127.39 29.2521C127.61 29.2261 127.814 29.4771 127.854 29.8041Z" fill="#263238"/>
<path d="M129.062 29.826C128.789 30.8848 128.372 31.9009 127.822 32.846C128.067 32.9805 128.339 33.0597 128.618 33.0782C128.897 33.0967 129.177 33.054 129.438 32.953L129.062 29.826Z" fill="#ED847E"/>
<path d="M132.61 28.006C132.575 28.0165 132.538 28.0173 132.503 28.0083C132.468 27.9994 132.436 27.9809 132.41 27.955C132.245 27.7732 132.038 27.6331 131.809 27.5462C131.579 27.4593 131.331 27.428 131.087 27.455C131.036 27.4636 130.984 27.4522 130.941 27.4231C130.898 27.394 130.869 27.3496 130.858 27.299C130.853 27.2737 130.853 27.2476 130.858 27.2223C130.863 27.197 130.873 27.1729 130.887 27.1515C130.902 27.1302 130.921 27.112 130.942 27.098C130.964 27.084 130.988 27.0745 131.014 27.07C131.322 27.0301 131.636 27.0648 131.928 27.1713C132.22 27.2778 132.483 27.453 132.693 27.682C132.729 27.7193 132.749 27.7689 132.749 27.8205C132.749 27.8722 132.729 27.9218 132.693 27.959C132.67 27.9814 132.641 27.9976 132.61 28.006Z" fill="#263238"/>
<path d="M133.4 32.6729C132.918 32.6467 132.438 32.7367 131.998 32.9354C131.559 33.1341 131.174 33.4356 130.875 33.8144C130.86 33.8376 130.854 33.8662 130.859 33.8938C130.864 33.9214 130.88 33.9458 130.903 33.9616C130.927 33.9775 130.955 33.9834 130.983 33.9782C131.01 33.973 131.035 33.957 131.051 33.9338C131.332 33.5872 131.691 33.3115 132.098 33.129C132.506 32.9465 132.95 32.8623 133.396 32.8832C133.41 32.8837 133.424 32.8814 133.437 32.8766C133.45 32.8718 133.462 32.8645 133.472 32.8551C133.482 32.8457 133.49 32.8344 133.496 32.8218C133.502 32.8093 133.505 32.7957 133.505 32.7819C133.506 32.7681 133.504 32.7543 133.499 32.7414C133.494 32.7284 133.487 32.7166 133.477 32.7065C133.468 32.6963 133.457 32.6882 133.444 32.6824C133.431 32.6767 133.418 32.6735 133.404 32.673L133.4 32.6729Z" fill="#263238"/>
<path d="M126.095 28.71C126.056 28.7231 126.013 28.7231 125.974 28.71C125.926 28.6921 125.886 28.6563 125.864 28.6098C125.841 28.5634 125.837 28.5101 125.853 28.461C125.947 28.1644 126.111 27.8948 126.331 27.6751C126.551 27.4554 126.821 27.2921 127.118 27.199C127.168 27.1877 127.221 27.1961 127.265 27.2225C127.309 27.249 127.342 27.2914 127.355 27.341C127.367 27.3911 127.358 27.4436 127.332 27.4877C127.306 27.5318 127.264 27.5642 127.214 27.578C126.981 27.6559 126.769 27.788 126.597 27.9636C126.425 28.1392 126.297 28.3532 126.223 28.588C126.213 28.6168 126.196 28.6428 126.173 28.6639C126.151 28.6851 126.124 28.7009 126.095 28.71Z" fill="#263238"/>
<path d="M138.531 174.834C138.248 174.857 137.966 174.782 137.731 174.623C137.658 174.56 137.601 174.48 137.567 174.39C137.532 174.299 137.519 174.202 137.531 174.106C137.531 174.049 137.547 173.993 137.576 173.944C137.606 173.895 137.648 173.855 137.699 173.829C138.158 173.593 139.489 174.413 139.639 174.507C139.656 174.518 139.669 174.533 139.677 174.55C139.685 174.568 139.687 174.588 139.684 174.607C139.681 174.626 139.672 174.644 139.659 174.658C139.646 174.672 139.629 174.682 139.61 174.687C139.257 174.776 138.895 174.825 138.531 174.834ZM137.917 173.979C137.874 173.977 137.83 173.985 137.79 174.003C137.77 174.014 137.753 174.031 137.742 174.052C137.731 174.072 137.726 174.095 137.728 174.118C137.719 174.184 137.727 174.25 137.75 174.312C137.773 174.374 137.811 174.43 137.861 174.473C138.323 174.684 138.848 174.71 139.328 174.547C138.897 174.268 138.417 174.075 137.912 173.979H137.917Z" fill="#00AFC9"/>
<path d="M139.584 174.689C139.568 174.689 139.552 174.685 139.537 174.677C139.11 174.445 138.283 173.539 138.37 173.077C138.384 173.005 138.423 172.94 138.48 172.893C138.537 172.846 138.608 172.821 138.681 172.82C138.756 172.811 138.831 172.818 138.903 172.839C138.975 172.861 139.041 172.897 139.098 172.946C139.578 173.339 139.677 174.531 139.68 174.581C139.681 174.599 139.678 174.616 139.67 174.632C139.663 174.648 139.651 174.661 139.636 174.671C139.621 174.682 139.603 174.688 139.584 174.689ZM138.75 173.014H138.705C138.578 173.03 138.567 173.088 138.562 173.114C138.51 173.386 139.037 174.07 139.462 174.393C139.434 173.921 139.264 173.467 138.974 173.093C138.911 173.041 138.832 173.013 138.75 173.014Z" fill="#00AFC9"/>
<path d="M121.296 174.057L121.28 174.064C120.633 174.271 119.475 174.564 118.98 174.218C118.907 174.168 118.847 174.1 118.806 174.021C118.765 173.942 118.744 173.855 118.744 173.766C118.74 173.713 118.75 173.659 118.773 173.61C118.796 173.562 118.831 173.52 118.875 173.489C119.34 173.162 121.087 173.805 121.285 173.88C121.302 173.887 121.317 173.899 121.327 173.914C121.338 173.929 121.344 173.947 121.345 173.966C121.346 173.984 121.342 174.002 121.334 174.019C121.325 174.035 121.312 174.049 121.296 174.058V174.057ZM119.013 173.633L118.99 173.647C118.972 173.659 118.958 173.676 118.949 173.695C118.94 173.715 118.937 173.737 118.94 173.758C118.939 173.817 118.952 173.875 118.978 173.927C119.005 173.979 119.044 174.024 119.092 174.058C119.7 174.248 120.356 174.212 120.94 173.958C120.335 173.69 119.672 173.578 119.012 173.633H119.013Z" fill="#00AFC9"/>
<path d="M121.296 174.057C121.273 174.069 121.245 174.071 121.22 174.063C120.7 173.897 119.62 173.12 119.64 172.648C119.645 172.537 119.708 172.392 119.972 172.335C120.067 172.314 120.166 172.312 120.262 172.33C120.358 172.349 120.449 172.386 120.53 172.441C120.954 172.846 121.24 173.375 121.346 173.951C121.35 173.968 121.349 173.985 121.343 174.001C121.338 174.018 121.329 174.032 121.316 174.044C121.31 174.049 121.303 174.053 121.296 174.057ZM119.905 172.567C119.838 172.603 119.836 172.645 119.835 172.661C119.821 172.945 120.567 173.567 121.108 173.813C121.008 173.352 120.769 172.933 120.423 172.613C120.364 172.572 120.297 172.544 120.226 172.53C120.156 172.517 120.083 172.518 120.013 172.534C119.976 172.54 119.939 172.551 119.905 172.567Z" fill="#00AFC9"/>
<path d="M146.882 50.477C146.777 52.091 146.587 53.594 146.39 55.146C146.193 56.698 145.928 58.219 145.637 59.754C145.061 62.8892 144.211 65.9677 143.096 68.954L142.605 70.111L142.481 70.4L142.45 70.472L142.399 70.582L142.255 70.867C142.065 71.2133 141.836 71.5373 141.574 71.833C141.143 72.3181 140.639 72.7331 140.08 73.063C139.628 73.3324 139.153 73.5629 138.661 73.752C137.023 74.3428 135.311 74.7003 133.573 74.814C130.419 75.0497 127.247 74.9313 124.119 74.461L124.232 71.361L126.418 71.114C127.151 71.027 127.88 70.914 128.605 70.814C130.052 70.601 131.484 70.363 132.849 70.046C134.112 69.789 135.339 69.3821 136.505 68.834C136.82 68.7019 137.095 68.4916 137.305 68.223C137.318 68.152 137.16 68.463 137.346 67.966L137.673 67.01C138.474 64.2693 139.087 61.4772 139.507 58.653C139.742 57.215 139.943 55.764 140.137 54.309C140.331 52.854 140.491 51.369 140.644 49.974L146.882 50.477Z" fill="#FFC3BD"/>
<path d="M147.242 47.4811C149.265 50.8741 147.542 61.5381 147.542 61.5381L136.942 59.5791C136.942 59.5791 136.368 53.4791 138.386 48.7851C140.577 43.6761 144.791 43.3701 147.242 47.4811Z" fill="#00AFC9"/>
<path d="M121.264 80.952L115.639 54.788C115.369 53.6708 114.743 52.6715 113.856 51.941C112.968 51.2105 111.867 50.7883 110.719 50.738H89.166C90.3145 50.7881 91.4156 51.2102 92.3033 51.9407C93.1909 52.6713 93.817 53.6706 94.087 54.788L99.712 80.952C99.982 82.0693 100.608 83.0685 101.495 83.7991C102.383 84.5296 103.484 84.9518 104.632 85.002H126.184C125.036 84.9518 123.935 84.5296 123.047 83.7991C122.16 83.0685 121.534 82.0693 121.264 80.952Z" fill="#263238"/>
<path opacity="0.7" d="M121.264 80.952L115.639 54.788C115.369 53.6708 114.743 52.6715 113.856 51.941C112.968 51.2105 111.867 50.7883 110.719 50.738H89.166C90.3145 50.7881 91.4156 51.2102 92.3033 51.9407C93.1909 52.6713 93.817 53.6706 94.087 54.788L99.712 80.952C99.982 82.0693 100.608 83.0685 101.495 83.7991C102.383 84.5296 103.484 84.9518 104.632 85.002H126.184C125.036 84.9518 123.935 84.5296 123.047 83.7991C122.16 83.0685 121.534 82.0693 121.264 80.952Z" fill="#00AFC9"/>
<path d="M89.166 50.738H110.718C109.615 50.7587 108.557 51.1817 107.743 51.9275C106.93 52.6733 106.416 53.6905 106.3 54.788L100.709 115.588C100.592 116.685 100.079 117.703 99.2658 118.448C98.4523 119.194 97.3944 119.617 96.291 119.638H82.839C82.3209 119.648 81.8066 119.546 81.3307 119.341C80.8549 119.136 80.4283 118.831 80.0797 118.448C79.7311 118.064 79.4684 117.611 79.3093 117.118C79.1502 116.624 79.0982 116.103 79.157 115.588L84.749 54.788C84.8653 53.6907 85.3783 52.6736 86.1917 51.9278C87.005 51.182 88.0627 50.7589 89.166 50.738Z" fill="#00AFC9"/>
<path d="M92.609 115.587C92.5503 116.102 92.6022 116.623 92.7613 117.117C92.9204 117.61 93.1831 118.063 93.5317 118.447C93.8804 118.83 94.3069 119.135 94.7828 119.34C95.2586 119.545 95.7729 119.647 96.2911 119.637H74.7391C74.2208 119.647 73.7065 119.546 73.2306 119.341C72.7546 119.135 72.328 118.831 71.9793 118.447C71.6307 118.064 71.368 117.61 71.209 117.117C71.0499 116.624 70.9981 116.102 71.057 115.587H92.609Z" fill="#263238"/>
<path opacity="0.7" d="M92.609 115.587C92.5503 116.102 92.6022 116.623 92.7613 117.117C92.9204 117.61 93.1831 118.063 93.5317 118.447C93.8804 118.83 94.3069 119.135 94.7828 119.34C95.2586 119.545 95.7729 119.647 96.2911 119.637H74.7391C74.2208 119.647 73.7065 119.546 73.2306 119.341C72.7546 119.135 72.328 118.831 71.9793 118.447C71.6307 118.064 71.368 117.61 71.209 117.117C71.0499 116.624 70.9981 116.102 71.057 115.587H92.609Z" fill="#00AFC9"/>
<g opacity="0.5">
<path opacity="0.5" d="M102.565 57.5501H87.9809C87.8683 57.5516 87.7567 57.5292 87.6534 57.4843C87.5501 57.4394 87.4576 57.373 87.3819 57.2896C87.3062 57.2062 87.2492 57.1076 87.2145 57.0005C87.1799 56.8933 87.1684 56.78 87.1809 56.6681C87.2069 56.4293 87.3188 56.2082 87.4958 56.0459C87.6728 55.8836 87.9028 55.7912 88.1429 55.7861H102.725C102.838 55.7845 102.949 55.807 103.052 55.8519C103.156 55.8968 103.248 55.9632 103.324 56.0466C103.4 56.13 103.457 56.2286 103.491 56.3357C103.526 56.4429 103.537 56.5562 103.525 56.6681C103.499 56.9065 103.387 57.1274 103.211 57.2897C103.034 57.4519 102.805 57.5445 102.565 57.5501Z" fill="white"/>
<path opacity="0.5" d="M102.131 62.3211H87.5471C87.4345 62.3226 87.3228 62.3002 87.2196 62.2553C87.1163 62.2104 87.0237 62.144 86.9481 62.0606C86.8724 61.9772 86.8154 61.8786 86.7807 61.7715C86.7461 61.6643 86.7346 61.551 86.7471 61.4391C86.773 61.2003 86.8849 60.9792 87.062 60.8169C87.239 60.6546 87.469 60.5622 87.7091 60.5571H102.293C102.406 60.5555 102.517 60.578 102.621 60.6229C102.724 60.6678 102.816 60.7341 102.892 60.8176C102.968 60.901 103.025 60.9995 103.059 61.1067C103.094 61.2138 103.106 61.3271 103.093 61.4391C103.067 61.6779 102.956 61.8992 102.778 62.0615C102.601 62.2239 102.371 62.3161 102.131 62.3211Z" fill="white"/>
<path opacity="0.5" d="M98.122 67.0921H87.113C87.0004 67.0936 86.8888 67.0712 86.7855 67.0263C86.6822 66.9814 86.5897 66.915 86.514 66.8316C86.4383 66.7482 86.3813 66.6496 86.3466 66.5424C86.312 66.4353 86.3005 66.322 86.313 66.2101C86.3389 65.9713 86.4509 65.7502 86.6279 65.5879C86.8049 65.4256 87.0349 65.3332 87.275 65.3281H98.284C98.3966 65.3265 98.5083 65.3489 98.6115 65.3939C98.7148 65.4388 98.8074 65.5051 98.883 65.5886C98.9587 65.672 99.0157 65.7705 99.0504 65.8777C99.085 65.9849 99.0965 66.0981 99.084 66.2101C99.0581 66.4488 98.9462 66.67 98.7692 66.8323C98.5921 66.9946 98.3621 67.0869 98.122 67.0921Z" fill="white"/>
<path opacity="0.5" d="M90.4129 71.8621H86.6799C86.5673 71.8637 86.4557 71.8412 86.3524 71.7963C86.2491 71.7514 86.1566 71.685 86.0809 71.6016C86.0052 71.5182 85.9482 71.4196 85.9135 71.3125C85.8789 71.2053 85.8674 71.092 85.8799 70.9801C85.9056 70.7414 86.0173 70.5203 86.1942 70.358C86.371 70.1957 86.6009 70.1033 86.8409 70.0981H90.5749C90.6875 70.0966 90.7992 70.119 90.9024 70.1639C91.0057 70.2088 91.0983 70.2752 91.1739 70.3586C91.2496 70.442 91.3066 70.5406 91.3413 70.6477C91.3759 70.7549 91.3874 70.8682 91.3749 70.9801C91.349 71.2189 91.2371 71.44 91.06 71.6023C90.883 71.7646 90.653 71.857 90.4129 71.8621Z" fill="white"/>
<path opacity="0.5" d="M100.829 76.6331H86.2409C86.1283 76.6346 86.0167 76.6122 85.9134 76.5673C85.8101 76.5224 85.7176 76.456 85.6419 76.3726C85.5663 76.2892 85.5092 76.1906 85.4746 76.0835C85.4399 75.9763 85.4284 75.863 85.4409 75.7511C85.4669 75.5123 85.5788 75.2912 85.7558 75.1289C85.9328 74.9666 86.1628 74.8742 86.4029 74.8691H100.987C101.1 74.8675 101.211 74.89 101.314 74.9349C101.418 74.9798 101.51 75.0462 101.586 75.1296C101.662 75.213 101.719 75.3116 101.753 75.4187C101.788 75.5259 101.799 75.6392 101.787 75.7511C101.761 75.9892 101.65 76.2098 101.474 76.372C101.297 76.5342 101.068 76.627 100.829 76.6331Z" fill="white"/>
<path opacity="0.5" d="M94.652 81.4041H85.812C85.6994 81.4056 85.5877 81.3832 85.4844 81.3383C85.3812 81.2934 85.2886 81.227 85.213 81.1436C85.1373 81.0602 85.0802 80.9616 85.0456 80.8545C85.0109 80.7473 84.9995 80.634 85.012 80.5221C85.0377 80.2834 85.1494 80.0623 85.3262 79.9C85.5031 79.7376 85.733 79.6453 85.973 79.6401H94.813C94.9256 79.6385 95.0372 79.661 95.1405 79.7059C95.2438 79.7508 95.3363 79.8172 95.412 79.9006C95.4877 79.984 95.5447 80.0826 95.5793 80.1897C95.614 80.2969 95.6255 80.4102 95.613 80.5221C95.5871 80.7607 95.4753 80.9817 95.2985 81.144C95.1217 81.3063 94.8919 81.3987 94.652 81.4041Z" fill="white"/>
<path opacity="0.5" d="M99.9619 86.1741H85.3779C85.2653 86.1756 85.1536 86.1532 85.0504 86.1083C84.9471 86.0634 84.8545 85.997 84.7789 85.9136C84.7032 85.8302 84.6462 85.7317 84.6115 85.6245C84.5769 85.5173 84.5654 85.404 84.5779 85.2921C84.6038 85.0534 84.7157 84.8322 84.8928 84.6699C85.0698 84.5076 85.2998 84.4153 85.5399 84.4101H100.125C100.238 84.4086 100.349 84.431 100.452 84.4759C100.556 84.5208 100.648 84.5872 100.724 84.6706C100.8 84.754 100.857 84.8526 100.891 84.9597C100.926 85.0669 100.937 85.1802 100.925 85.2921C100.899 85.531 100.787 85.7523 100.61 85.9146C100.432 86.077 100.202 86.1692 99.9619 86.1741Z" fill="white"/>
<path opacity="0.5" d="M95.9531 90.9451H84.9441C84.8315 90.9467 84.7198 90.9242 84.6165 90.8793C84.5132 90.8344 84.4207 90.768 84.345 90.6846C84.2694 90.6012 84.2123 90.5026 84.1777 90.3955C84.143 90.2883 84.1316 90.175 84.1441 90.0631C84.17 89.8244 84.2819 89.6032 84.4589 89.4409C84.6359 89.2786 84.866 89.1863 85.1061 89.1811H96.1151C96.2277 89.1796 96.3393 89.202 96.4426 89.2469C96.5459 89.2918 96.6384 89.3582 96.7141 89.4416C96.7897 89.525 96.8468 89.6236 96.8814 89.7307C96.9161 89.8379 96.9275 89.9512 96.9151 90.0631C96.8891 90.3019 96.7772 90.523 96.6002 90.6853C96.4232 90.8476 96.1932 90.94 95.9531 90.9451Z" fill="white"/>
<path opacity="0.5" d="M88.244 95.7151H84.508C84.3954 95.7167 84.2838 95.6942 84.1805 95.6493C84.0772 95.6044 83.9847 95.5381 83.909 95.4546C83.8334 95.3712 83.7763 95.2727 83.7417 95.1655C83.707 95.0584 83.6955 94.9451 83.708 94.8331C83.734 94.5944 83.8459 94.3732 84.0229 94.2109C84.1999 94.0486 84.4299 93.9563 84.67 93.9511H88.408C88.5206 93.9496 88.6323 93.972 88.7356 94.0169C88.8388 94.0618 88.9314 94.1282 89.007 94.2116C89.0827 94.295 89.1398 94.3936 89.1744 94.5007C89.2091 94.6079 89.2205 94.7212 89.208 94.8331C89.182 95.0722 89.0699 95.2936 88.8924 95.456C88.715 95.6183 88.4845 95.7104 88.244 95.7151Z" fill="white"/>
<path opacity="0.5" d="M98.6599 100.487H84.0759C83.9633 100.489 83.8516 100.466 83.7484 100.421C83.6451 100.376 83.5525 100.31 83.4769 100.227C83.4012 100.143 83.3442 100.045 83.3095 99.9375C83.2749 99.8303 83.2634 99.717 83.2759 99.6051C83.3018 99.3663 83.4137 99.1452 83.5908 98.9829C83.7678 98.8206 83.9978 98.7282 84.2379 98.7231H98.8219C98.9345 98.7216 99.0462 98.744 99.1494 98.7889C99.2527 98.8338 99.3453 98.9002 99.4209 98.9836C99.4966 99.067 99.5536 99.1656 99.5883 99.2727C99.6229 99.3799 99.6344 99.4932 99.6219 99.6051C99.596 99.8439 99.4841 100.065 99.307 100.227C99.13 100.39 98.9 100.482 98.6599 100.487Z" fill="white"/>
<path opacity="0.5" d="M92.483 105.257H83.643C83.5304 105.259 83.4188 105.236 83.3155 105.191C83.2122 105.146 83.1197 105.08 83.044 104.997C82.9684 104.913 82.9113 104.815 82.8767 104.708C82.842 104.6 82.8305 104.487 82.843 104.375C82.8688 104.136 82.9806 103.915 83.1577 103.753C83.3347 103.59 83.5649 103.498 83.805 103.493H92.644C92.7567 103.492 92.8683 103.514 92.9716 103.559C93.0749 103.604 93.1674 103.67 93.2431 103.754C93.3187 103.837 93.3758 103.936 93.4104 104.043C93.4451 104.15 93.4565 104.263 93.444 104.375C93.4181 104.614 93.3064 104.835 93.1296 104.997C92.9528 105.159 92.723 105.252 92.483 105.257Z" fill="white"/>
<path opacity="0.5" d="M97.792 110.028H83.208C83.0954 110.03 82.9837 110.007 82.8804 109.962C82.7772 109.917 82.6846 109.851 82.609 109.768C82.5333 109.684 82.4762 109.586 82.4416 109.478C82.4069 109.371 82.3955 109.258 82.408 109.146C82.4339 108.907 82.5458 108.686 82.7228 108.524C82.8999 108.362 83.1299 108.269 83.37 108.264H97.952C98.0646 108.263 98.1762 108.285 98.2795 108.33C98.3828 108.375 98.4753 108.441 98.551 108.525C98.6267 108.608 98.6837 108.707 98.7184 108.814C98.753 108.921 98.7645 109.034 98.752 109.146C98.7261 109.385 98.6145 109.605 98.4379 109.768C98.2613 109.93 98.0317 110.022 97.792 110.028Z" fill="white"/>
</g>
<path d="M125.503 71.6991L122.337 68.9481L120.853 74.0121C120.853 74.0121 124.069 75.7561 125.183 74.1551L125.503 71.6991Z" fill="#FFC3BD"/>
<path d="M118.888 68.75L117.858 72.994L120.85 74.014L122.334 68.949L118.888 68.75Z" fill="#FFC3BD"/>
<path d="M21.6321 205.228V206.81H19.0281V215H17.0681V206.81H14.4641V205.228H21.6321ZM25.0362 206.32C24.6908 206.32 24.4015 206.213 24.1682 205.998C23.9442 205.774 23.8322 205.499 23.8322 205.172C23.8322 204.845 23.9442 204.575 24.1682 204.36C24.4015 204.136 24.6908 204.024 25.0362 204.024C25.3815 204.024 25.6662 204.136 25.8902 204.36C26.1235 204.575 26.2402 204.845 26.2402 205.172C26.2402 205.499 26.1235 205.774 25.8902 205.998C25.6662 206.213 25.3815 206.32 25.0362 206.32ZM26.0022 207.244V215H24.0422V207.244H26.0022ZM28.4147 211.094C28.4147 210.31 28.5687 209.615 28.8767 209.008C29.194 208.401 29.6233 207.935 30.1647 207.608C30.706 207.281 31.308 207.118 31.9707 207.118C32.4747 207.118 32.9553 207.23 33.4127 207.454C33.87 207.669 34.234 207.958 34.5047 208.322V204.64H36.4927V215H34.5047V213.852C34.262 214.235 33.9213 214.543 33.4827 214.776C33.044 215.009 32.5353 215.126 31.9567 215.126C31.3033 215.126 30.706 214.958 30.1647 214.622C29.6233 214.286 29.194 213.815 28.8767 213.208C28.5687 212.592 28.4147 211.887 28.4147 211.094ZM34.5187 211.122C34.5187 210.646 34.4253 210.24 34.2387 209.904C34.052 209.559 33.8 209.297 33.4827 209.12C33.1653 208.933 32.8247 208.84 32.4607 208.84C32.0967 208.84 31.7607 208.929 31.4527 209.106C31.1447 209.283 30.8927 209.545 30.6967 209.89C30.51 210.226 30.4167 210.627 30.4167 211.094C30.4167 211.561 30.51 211.971 30.6967 212.326C30.8927 212.671 31.1447 212.937 31.4527 213.124C31.77 213.311 32.106 213.404 32.4607 213.404C32.8247 213.404 33.1653 213.315 33.4827 213.138C33.8 212.951 34.052 212.69 34.2387 212.354C34.4253 212.009 34.5187 211.598 34.5187 211.122ZM38.8829 211.094C38.8829 210.31 39.0369 209.615 39.3449 209.008C39.6623 208.401 40.0869 207.935 40.6189 207.608C41.1603 207.281 41.7623 207.118 42.4249 207.118C43.0036 207.118 43.5076 207.235 43.9369 207.468C44.3756 207.701 44.7256 207.995 44.9869 208.35V207.244H46.9609V215H44.9869V213.866C44.7349 214.23 44.3849 214.533 43.9369 214.776C43.4983 215.009 42.9896 215.126 42.4109 215.126C41.7576 215.126 41.1603 214.958 40.6189 214.622C40.0869 214.286 39.6623 213.815 39.3449 213.208C39.0369 212.592 38.8829 211.887 38.8829 211.094ZM44.9869 211.122C44.9869 210.646 44.8936 210.24 44.7069 209.904C44.5203 209.559 44.2683 209.297 43.9509 209.12C43.6336 208.933 43.2929 208.84 42.9289 208.84C42.5649 208.84 42.2289 208.929 41.9209 209.106C41.6129 209.283 41.3609 209.545 41.1649 209.89C40.9783 210.226 40.8849 210.627 40.8849 211.094C40.8849 211.561 40.9783 211.971 41.1649 212.326C41.3609 212.671 41.6129 212.937 41.9209 213.124C42.2383 213.311 42.5743 213.404 42.9289 213.404C43.2929 213.404 43.6336 213.315 43.9509 213.138C44.2683 212.951 44.5203 212.69 44.7069 212.354C44.8936 212.009 44.9869 211.598 44.9869 211.122ZM54.4472 215L51.8152 211.696V215H49.8552V204.64H51.8152V210.534L54.4192 207.244H56.9672L53.5512 211.136L56.9952 215H54.4472ZM69.3189 213.138H65.4269L64.7829 215H62.7249L66.2389 205.214H68.5209L72.0349 215H69.9629L69.3189 213.138ZM68.7869 211.57L67.3729 207.482L65.9589 211.57H68.7869ZM73.8244 211.094C73.8244 210.31 73.9784 209.615 74.2864 209.008C74.6038 208.401 75.0331 207.935 75.5744 207.608C76.1158 207.281 76.7178 207.118 77.3804 207.118C77.8844 207.118 78.3651 207.23 78.8224 207.454C79.2798 207.669 79.6438 207.958 79.9144 208.322V204.64H81.9024V215H79.9144V213.852C79.6718 214.235 79.3311 214.543 78.8924 214.776C78.4538 215.009 77.9451 215.126 77.3664 215.126C76.7131 215.126 76.1158 214.958 75.5744 214.622C75.0331 214.286 74.6038 213.815 74.2864 213.208C73.9784 212.592 73.8244 211.887 73.8244 211.094ZM79.9284 211.122C79.9284 210.646 79.8351 210.24 79.6484 209.904C79.4618 209.559 79.2098 209.297 78.8924 209.12C78.5751 208.933 78.2344 208.84 77.8704 208.84C77.5064 208.84 77.1704 208.929 76.8624 209.106C76.5544 209.283 76.3024 209.545 76.1064 209.89C75.9198 210.226 75.8264 210.627 75.8264 211.094C75.8264 211.561 75.9198 211.971 76.1064 212.326C76.3024 212.671 76.5544 212.937 76.8624 213.124C77.1798 213.311 77.5158 213.404 77.8704 213.404C78.2344 213.404 78.5751 213.315 78.8924 213.138C79.2098 212.951 79.4618 212.69 79.6484 212.354C79.8351 212.009 79.9284 211.598 79.9284 211.122ZM84.2927 211.094C84.2927 210.31 84.4467 209.615 84.7547 209.008C85.072 208.401 85.4967 207.935 86.0287 207.608C86.57 207.281 87.172 207.118 87.8347 207.118C88.4134 207.118 88.9174 207.235 89.3467 207.468C89.7854 207.701 90.1354 207.995 90.3967 208.35V207.244H92.3707V215H90.3967V213.866C90.1447 214.23 89.7947 214.533 89.3467 214.776C88.908 215.009 88.3994 215.126 87.8207 215.126C87.1674 215.126 86.57 214.958 86.0287 214.622C85.4967 214.286 85.072 213.815 84.7547 213.208C84.4467 212.592 84.2927 211.887 84.2927 211.094ZM90.3967 211.122C90.3967 210.646 90.3034 210.24 90.1167 209.904C89.93 209.559 89.678 209.297 89.3607 209.12C89.0434 208.933 88.7027 208.84 88.3387 208.84C87.9747 208.84 87.6387 208.929 87.3307 209.106C87.0227 209.283 86.7707 209.545 86.5747 209.89C86.388 210.226 86.2947 210.627 86.2947 211.094C86.2947 211.561 86.388 211.971 86.5747 212.326C86.7707 212.671 87.0227 212.937 87.3307 213.124C87.648 213.311 87.984 213.404 88.3387 213.404C88.7027 213.404 89.0434 213.315 89.3607 213.138C89.678 212.951 89.93 212.69 90.1167 212.354C90.3034 212.009 90.3967 211.598 90.3967 211.122ZM104.621 215L102.465 211.192H101.541V215H99.5809V205.228H103.249C104.005 205.228 104.649 205.363 105.181 205.634C105.713 205.895 106.11 206.255 106.371 206.712C106.642 207.16 106.777 207.664 106.777 208.224C106.777 208.868 106.59 209.451 106.217 209.974C105.844 210.487 105.288 210.842 104.551 211.038L106.889 215H104.621ZM101.541 209.722H103.179C103.711 209.722 104.108 209.596 104.369 209.344C104.63 209.083 104.761 208.723 104.761 208.266C104.761 207.818 104.63 207.473 104.369 207.23C104.108 206.978 103.711 206.852 103.179 206.852H101.541V209.722ZM110.524 206.32C110.178 206.32 109.889 206.213 109.656 205.998C109.432 205.774 109.32 205.499 109.32 205.172C109.32 204.845 109.432 204.575 109.656 204.36C109.889 204.136 110.178 204.024 110.524 204.024C110.869 204.024 111.154 204.136 111.378 204.36C111.611 204.575 111.728 204.845 111.728 205.172C111.728 205.499 111.611 205.774 111.378 205.998C111.154 206.213 110.869 206.32 110.524 206.32ZM111.49 207.244V215H109.53V207.244H111.49ZM125.158 207.244L122.89 215H120.776L119.362 209.582L117.948 215H115.82L113.538 207.244H115.526L116.898 213.152L118.382 207.244H120.454L121.91 213.138L123.282 207.244H125.158ZM126.695 211.094C126.695 210.31 126.849 209.615 127.157 209.008C127.474 208.401 127.899 207.935 128.431 207.608C128.972 207.281 129.574 207.118 130.237 207.118C130.815 207.118 131.319 207.235 131.749 207.468C132.187 207.701 132.537 207.995 132.799 208.35V207.244H134.773V215H132.799V213.866C132.547 214.23 132.197 214.533 131.749 214.776C131.31 215.009 130.801 215.126 130.223 215.126C129.569 215.126 128.972 214.958 128.431 214.622C127.899 214.286 127.474 213.815 127.157 213.208C126.849 212.592 126.695 211.887 126.695 211.094ZM132.799 211.122C132.799 210.646 132.705 210.24 132.519 209.904C132.332 209.559 132.08 209.297 131.763 209.12C131.445 208.933 131.105 208.84 130.741 208.84C130.377 208.84 130.041 208.929 129.733 209.106C129.425 209.283 129.173 209.545 128.977 209.89C128.79 210.226 128.697 210.627 128.697 211.094C128.697 211.561 128.79 211.971 128.977 212.326C129.173 212.671 129.425 212.937 129.733 213.124C130.05 213.311 130.386 213.404 130.741 213.404C131.105 213.404 131.445 213.315 131.763 213.138C132.08 212.951 132.332 212.69 132.519 212.354C132.705 212.009 132.799 211.598 132.799 211.122ZM145.087 207.244L140.285 218.668H138.199L139.879 214.804L136.771 207.244H138.969L140.971 212.662L143.001 207.244H145.087ZM146.62 211.094C146.62 210.31 146.774 209.615 147.082 209.008C147.399 208.401 147.824 207.935 148.356 207.608C148.897 207.281 149.499 207.118 150.162 207.118C150.74 207.118 151.244 207.235 151.674 207.468C152.112 207.701 152.462 207.995 152.724 208.35V207.244H154.698V215H152.724V213.866C152.472 214.23 152.122 214.533 151.674 214.776C151.235 215.009 150.726 215.126 150.148 215.126C149.494 215.126 148.897 214.958 148.356 214.622C147.824 214.286 147.399 213.815 147.082 213.208C146.774 212.592 146.62 211.887 146.62 211.094ZM152.724 211.122C152.724 210.646 152.63 210.24 152.444 209.904C152.257 209.559 152.005 209.297 151.688 209.12C151.37 208.933 151.03 208.84 150.666 208.84C150.302 208.84 149.966 208.929 149.658 209.106C149.35 209.283 149.098 209.545 148.902 209.89C148.715 210.226 148.622 210.627 148.622 211.094C148.622 211.561 148.715 211.971 148.902 212.326C149.098 212.671 149.35 212.937 149.658 213.124C149.975 213.311 150.311 213.404 150.666 213.404C151.03 213.404 151.37 213.315 151.688 213.138C152.005 212.951 152.257 212.69 152.444 212.354C152.63 212.009 152.724 211.598 152.724 211.122ZM159.874 208.854V212.606C159.874 212.867 159.934 213.059 160.056 213.18C160.186 213.292 160.401 213.348 160.7 213.348H161.61V215H160.378C158.726 215 157.9 214.197 157.9 212.592V208.854H156.976V207.244H157.9V205.326H159.874V207.244H161.61V208.854H159.874ZM171.731 205.228C172.758 205.228 173.659 205.429 174.433 205.83C175.217 206.231 175.819 206.805 176.239 207.552C176.669 208.289 176.883 209.148 176.883 210.128C176.883 211.108 176.669 211.967 176.239 212.704C175.819 213.432 175.217 213.997 174.433 214.398C173.659 214.799 172.758 215 171.731 215H168.315V205.228H171.731ZM171.661 213.334C172.688 213.334 173.481 213.054 174.041 212.494C174.601 211.934 174.881 211.145 174.881 210.128C174.881 209.111 174.601 208.317 174.041 207.748C173.481 207.169 172.688 206.88 171.661 206.88H170.275V213.334H171.661ZM180.325 206.32C179.979 206.32 179.69 206.213 179.457 205.998C179.233 205.774 179.121 205.499 179.121 205.172C179.121 204.845 179.233 204.575 179.457 204.36C179.69 204.136 179.979 204.024 180.325 204.024C180.67 204.024 180.955 204.136 181.179 204.36C181.412 204.575 181.529 204.845 181.529 205.172C181.529 205.499 181.412 205.774 181.179 205.998C180.955 206.213 180.67 206.32 180.325 206.32ZM181.291 207.244V215H179.331V207.244H181.291ZM187.175 215.126C186.54 215.126 185.971 215.014 185.467 214.79C184.963 214.557 184.562 214.244 184.263 213.852C183.974 213.46 183.815 213.026 183.787 212.55H185.761C185.798 212.849 185.943 213.096 186.195 213.292C186.456 213.488 186.778 213.586 187.161 213.586C187.534 213.586 187.824 213.511 188.029 213.362C188.244 213.213 188.351 213.021 188.351 212.788C188.351 212.536 188.22 212.349 187.959 212.228C187.707 212.097 187.301 211.957 186.741 211.808C186.162 211.668 185.686 211.523 185.313 211.374C184.949 211.225 184.632 210.996 184.361 210.688C184.1 210.38 183.969 209.965 183.969 209.442C183.969 209.013 184.09 208.621 184.333 208.266C184.585 207.911 184.94 207.631 185.397 207.426C185.864 207.221 186.41 207.118 187.035 207.118C187.959 207.118 188.696 207.351 189.247 207.818C189.798 208.275 190.101 208.896 190.157 209.68H188.281C188.253 209.372 188.122 209.129 187.889 208.952C187.665 208.765 187.362 208.672 186.979 208.672C186.624 208.672 186.349 208.737 186.153 208.868C185.966 208.999 185.873 209.181 185.873 209.414C185.873 209.675 186.004 209.876 186.265 210.016C186.526 210.147 186.932 210.282 187.483 210.422C188.043 210.562 188.505 210.707 188.869 210.856C189.233 211.005 189.546 211.239 189.807 211.556C190.078 211.864 190.218 212.275 190.227 212.788C190.227 213.236 190.101 213.637 189.849 213.992C189.606 214.347 189.252 214.627 188.785 214.832C188.328 215.028 187.791 215.126 187.175 215.126ZM195.098 208.854V212.606C195.098 212.867 195.159 213.059 195.28 213.18C195.411 213.292 195.625 213.348 195.924 213.348H196.834V215H195.602C193.95 215 193.124 214.197 193.124 212.592V208.854H192.2V207.244H193.124V205.326H195.098V207.244H196.834V208.854H195.098ZM201.184 208.448C201.436 208.037 201.762 207.715 202.164 207.482C202.574 207.249 203.041 207.132 203.564 207.132V209.19H203.046C202.43 209.19 201.963 209.335 201.646 209.624C201.338 209.913 201.184 210.417 201.184 211.136V215H199.224V207.244H201.184V208.448ZM206.858 206.32C206.513 206.32 206.223 206.213 205.99 205.998C205.766 205.774 205.654 205.499 205.654 205.172C205.654 204.845 205.766 204.575 205.99 204.36C206.223 204.136 206.513 204.024 206.858 204.024C207.203 204.024 207.488 204.136 207.712 204.36C207.945 204.575 208.062 204.845 208.062 205.172C208.062 205.499 207.945 205.774 207.712 205.998C207.488 206.213 207.203 206.32 206.858 206.32ZM207.824 207.244V215H205.864V207.244H207.824ZM212.7 208.378C212.952 208.005 213.298 207.701 213.736 207.468C214.184 207.235 214.693 207.118 215.262 207.118C215.925 207.118 216.522 207.281 217.054 207.608C217.596 207.935 218.02 208.401 218.328 209.008C218.646 209.605 218.804 210.301 218.804 211.094C218.804 211.887 218.646 212.592 218.328 213.208C218.02 213.815 217.596 214.286 217.054 214.622C216.522 214.958 215.925 215.126 215.262 215.126C214.684 215.126 214.175 215.014 213.736 214.79C213.307 214.557 212.962 214.258 212.7 213.894V215H210.74V204.64H212.7V208.378ZM216.802 211.094C216.802 210.627 216.704 210.226 216.508 209.89C216.322 209.545 216.07 209.283 215.752 209.106C215.444 208.929 215.108 208.84 214.744 208.84C214.39 208.84 214.054 208.933 213.736 209.12C213.428 209.297 213.176 209.559 212.98 209.904C212.794 210.249 212.7 210.655 212.7 211.122C212.7 211.589 212.794 211.995 212.98 212.34C213.176 212.685 213.428 212.951 213.736 213.138C214.054 213.315 214.39 213.404 214.744 213.404C215.108 213.404 215.444 213.311 215.752 213.124C216.07 212.937 216.322 212.671 216.508 212.326C216.704 211.981 216.802 211.57 216.802 211.094ZM228.531 207.244V215H226.557V214.02C226.305 214.356 225.973 214.622 225.563 214.818C225.161 215.005 224.723 215.098 224.247 215.098C223.64 215.098 223.103 214.972 222.637 214.72C222.17 214.459 221.801 214.081 221.531 213.586C221.269 213.082 221.139 212.485 221.139 211.794V207.244H223.099V211.514C223.099 212.13 223.253 212.606 223.561 212.942C223.869 213.269 224.289 213.432 224.821 213.432C225.362 213.432 225.787 213.269 226.095 212.942C226.403 212.606 226.557 212.13 226.557 211.514V207.244H228.531ZM234.413 215.126C233.778 215.126 233.209 215.014 232.705 214.79C232.201 214.557 231.799 214.244 231.501 213.852C231.211 213.46 231.053 213.026 231.025 212.55H232.999C233.036 212.849 233.181 213.096 233.433 213.292C233.694 213.488 234.016 213.586 234.399 213.586C234.772 213.586 235.061 213.511 235.267 213.362C235.481 213.213 235.589 213.021 235.589 212.788C235.589 212.536 235.458 212.349 235.197 212.228C234.945 212.097 234.539 211.957 233.979 211.808C233.4 211.668 232.924 211.523 232.551 211.374C232.187 211.225 231.869 210.996 231.599 210.688C231.337 210.38 231.207 209.965 231.207 209.442C231.207 209.013 231.328 208.621 231.571 208.266C231.823 207.911 232.177 207.631 232.635 207.426C233.101 207.221 233.647 207.118 234.273 207.118C235.197 207.118 235.934 207.351 236.485 207.818C237.035 208.275 237.339 208.896 237.395 209.68H235.519C235.491 209.372 235.36 209.129 235.127 208.952C234.903 208.765 234.599 208.672 234.217 208.672C233.862 208.672 233.587 208.737 233.391 208.868C233.204 208.999 233.111 209.181 233.111 209.414C233.111 209.675 233.241 209.876 233.503 210.016C233.764 210.147 234.17 210.282 234.721 210.422C235.281 210.562 235.743 210.707 236.107 210.856C236.471 211.005 236.783 211.239 237.045 211.556C237.315 211.864 237.455 212.275 237.465 212.788C237.465 213.236 237.339 213.637 237.087 213.992C236.844 214.347 236.489 214.627 236.023 214.832C235.565 215.028 235.029 215.126 234.413 215.126ZM241.047 206.32C240.702 206.32 240.413 206.213 240.179 205.998C239.955 205.774 239.843 205.499 239.843 205.172C239.843 204.845 239.955 204.575 240.179 204.36C240.413 204.136 240.702 204.024 241.047 204.024C241.393 204.024 241.677 204.136 241.901 204.36C242.135 204.575 242.251 204.845 242.251 205.172C242.251 205.499 242.135 205.774 241.901 205.998C241.677 206.213 241.393 206.32 241.047 206.32ZM242.013 207.244V215H240.053V207.244H242.013Z" fill="#01A2AD"/>
</svg>
