<svg width="25" height="27" viewBox="0 0 25 27" fill="none" xmlns="http://www.w3.org/2000/svg">
<path d="M11.1689 1.44513C11.5287 1.10503 12.0049 0.915527 12.5 0.915527C12.9951 0.915527 13.4713 1.10503 13.8311 1.44513L23.2163 10.3169C23.7976 10.8653 24.125 11.6306 24.125 12.4288V23.2207C24.125 23.9915 23.8188 24.7307 23.2738 25.2757C22.7288 25.8207 21.9895 26.1269 21.2188 26.1269H17.3438C16.9619 26.1269 16.5839 26.0517 16.2311 25.9055C15.8784 25.7594 15.5579 25.5451 15.288 25.275C15.0181 25.005 14.8041 24.6844 14.6582 24.3315C14.5122 23.9787 14.4372 23.6006 14.4375 23.2188V18.375C14.4375 18.1181 14.3354 17.8717 14.1538 17.69C13.9721 17.5083 13.7257 17.4063 13.4688 17.4063H11.5312C11.2743 17.4063 11.0279 17.5083 10.8462 17.69C10.6646 17.8717 10.5625 18.1181 10.5625 18.375V23.2188C10.5625 23.9895 10.2563 24.7288 9.71128 25.2738C9.16625 25.8188 8.42704 26.125 7.65625 26.125H3.78125C3.01046 26.125 2.27125 25.8188 1.72622 25.2738C1.18119 24.7288 0.875 23.9895 0.875 23.2188V12.4269C0.875 11.6286 1.20438 10.8633 1.78563 10.315L11.1689 1.44125V1.44513ZM12.5 2.85175L3.11475 11.7255C3.01947 11.8158 2.94355 11.9246 2.89159 12.0451C2.83963 12.1657 2.81272 12.2956 2.8125 12.4269V23.2188C2.8125 23.4757 2.91456 23.7221 3.09624 23.9038C3.27792 24.0854 3.52432 24.1875 3.78125 24.1875H7.65625C7.91318 24.1875 8.15958 24.0854 8.34126 23.9038C8.52294 23.7221 8.625 23.4757 8.625 23.2188V18.375C8.625 17.6042 8.93119 16.865 9.47622 16.32C10.0212 15.7749 10.7605 15.4688 11.5312 15.4688H13.4688C14.2395 15.4688 14.9788 15.7749 15.5238 16.32C16.0688 16.865 16.375 17.6042 16.375 18.375V23.2188C16.375 23.4757 16.4771 23.7221 16.6587 23.9038C16.8404 24.0854 17.0868 24.1875 17.3438 24.1875H21.2188C21.4757 24.1875 21.7221 24.0854 21.9038 23.9038C22.0854 23.7221 22.1875 23.4757 22.1875 23.2188V12.4269C22.1875 12.2953 22.1608 12.165 22.1088 12.0441C22.0568 11.9232 21.9808 11.8141 21.8853 11.7236L12.5 2.85175Z" fill="white"/>
</svg>
