<svg width="79" height="79" viewBox="0 0 79 79" fill="none" xmlns="http://www.w3.org/2000/svg">
<path d="M26.3333 62.5417C28.0793 62.5417 29.7538 61.8481 30.9885 60.6135C32.2231 59.3788 32.9167 57.7043 32.9167 55.9583C32.9167 54.2123 32.2231 52.5378 30.9885 51.3032C29.7538 50.0686 28.0793 49.375 26.3333 49.375C24.5873 49.375 22.9128 50.0686 21.6782 51.3032C20.4436 52.5378 19.75 54.2123 19.75 55.9583C19.75 57.7043 20.4436 59.3788 21.6782 60.6135C22.9128 61.8481 24.5873 62.5417 26.3333 62.5417V62.5417ZM59.25 62.5417C60.996 62.5417 62.6705 61.8481 63.9051 60.6135C65.1397 59.3788 65.8333 57.7043 65.8333 55.9583C65.8333 54.2123 65.1397 52.5378 63.9051 51.3032C62.6705 50.0686 60.996 49.375 59.25 49.375C57.504 49.375 55.8295 50.0686 54.5949 51.3032C53.3603 52.5378 52.6667 54.2123 52.6667 55.9583C52.6667 57.7043 53.3603 59.3788 54.5949 60.6135C55.8295 61.8481 57.504 62.5417 59.25 62.5417V62.5417Z" stroke="#E8E8E8" stroke-width="3" stroke-miterlimit="1.5" stroke-linecap="round" stroke-linejoin="round"/>
<path d="M33.0813 55.9583H49.375V21.725C49.375 21.2012 49.1669 20.6988 48.7966 20.3285C48.4262 19.9581 47.9238 19.75 47.4 19.75H3.29169M18.5979 55.9583H11.85C11.5907 55.9583 11.3338 55.9072 11.0942 55.808C10.8546 55.7087 10.6369 55.5633 10.4535 55.3799C10.2701 55.1965 10.1246 54.9787 10.0254 54.7391C9.9261 54.4995 9.87502 54.2427 9.87502 53.9833V37.8542" stroke="#E8E8E8" stroke-width="3" stroke-linecap="round"/>
<path d="M6.58337 29.625H19.75" stroke="#E8E8E8" stroke-width="3" stroke-linecap="round" stroke-linejoin="round"/>
<path d="M49.375 29.625H67.8413C68.223 29.6251 68.5966 29.7358 68.9167 29.9438C69.2368 30.1518 69.4898 30.4481 69.6451 30.7968L75.5372 44.0557C75.6494 44.3074 75.7077 44.5799 75.7083 44.8555V53.9833C75.7083 54.2427 75.6573 54.4995 75.558 54.7391C75.4587 54.9788 75.3133 55.1965 75.1299 55.3799C74.9465 55.5633 74.7288 55.7087 74.4891 55.808C74.2495 55.9073 73.9927 55.9583 73.7333 55.9583H67.4792M49.375 55.9583H52.6667" stroke="#E8E8E8" stroke-width="3" stroke-linecap="round"/>
</svg>
