<svg width="79" height="79" viewBox="0 0 79 79" fill="none" xmlns="http://www.w3.org/2000/svg">
<path fill-rule="evenodd" clip-rule="evenodd" d="M65.8334 54.5476V16.9286C65.8334 14.9332 65.0407 13.0194 63.6297 11.6085C62.2187 10.1975 60.305 9.40479 58.3096 9.40479H28.2144C26.2189 9.40479 24.3052 10.1975 22.8942 11.6085C21.4832 13.0194 20.6906 14.9332 20.6906 16.9286V54.5476C20.6906 56.5431 21.4832 58.4568 22.8942 59.8678C24.3052 61.2788 26.2189 62.0715 28.2144 62.0715H58.3096C60.305 62.0715 62.2187 61.2788 63.6297 59.8678C65.0407 58.4568 65.8334 56.5431 65.8334 54.5476Z" stroke="#E8E8E8" stroke-width="3" stroke-linecap="round" stroke-linejoin="round"/>
<path d="M19.957 18.5651L12.4181 21.3113C10.5436 21.994 9.01703 23.3933 8.17401 25.2013C7.331 27.0094 7.24057 29.0783 7.92262 30.953L20.7883 66.3036C21.1264 67.2322 21.644 68.0851 22.3118 68.8136C22.9795 69.5421 23.7842 70.1319 24.6799 70.5494C25.5756 70.9669 26.5447 71.2038 27.532 71.2466C28.5193 71.2895 29.5054 71.1374 30.4339 70.7991L51.3801 62.5304M31.9762 28.2143H50.7858M31.9762 35.7382H54.5477M31.9762 43.262H43.262" stroke="#E8E8E8" stroke-width="3" stroke-linecap="round" stroke-linejoin="round"/>
</svg>
