<svg width="26" height="26" viewBox="0 0 26 26" fill="none" xmlns="http://www.w3.org/2000/svg">
<path d="M19.25 25.5V23H23V19.25H25.5V23.625C25.5 24.125 25.25 24.5 24.875 24.875C24.5 25.25 24 25.5 23.625 25.5H19.25ZM6.75 25.5H2.375C1.875 25.5 1.5 25.25 1.125 24.875C0.75 24.5 0.5 24 0.5 23.625V19.25H3V23H6.75V25.5ZM19.25 0.5H23.625C24.125 0.5 24.5 0.75 24.875 1.125C25.25 1.5 25.5 1.875 25.5 2.375V6.75H23V3H19.25V0.5ZM6.75 0.5V3H3V6.75H0.5V2.375C0.5 1.875 0.75 1.5 1.125 1.125C1.5 0.75 1.875 0.5 2.375 0.5H6.75ZM21.75 11.75H4.25V14.25H21.75V11.75Z" fill="#01A2AD"/>
</svg>
